<mxfile host="app.diagrams.net" modified="2023-05-11T20:27:05.557Z" agent="Mozilla/5.0 (Windows NT 10.0; Win64; x64) AppleWebKit/537.36 (KHTML, like Gecko) Chrome/110.0.0.0 YaBrowser/23.3.3.719 Yowser/2.5 Safari/537.36" version="21.2.9" etag="J8dPU2PNEtyPYkfGV8Eq" type="github">
  <diagram name="Страница 1" id="AdZIXQv-gwVtzILkYsWQ">
    <mxGraphModel>
      <root>
        <mxCell id="0" />
        <mxCell id="1" parent="0" />
      </root>
    </mxGraphModel>
  </diagram>
</mxfile>
